<?xml version="1.0" encoding="UTF-8"?>
<svg id="Lager_1" data-name="Lager 1" xmlns="http://www.w3.org/2000/svg" viewBox="0 0 1246.5 451.38">
  <defs>
    <style>
      .cls-1 {
        fill: none;
      }

      .cls-2 {
        fill: #0092b6;
      }

      .cls-3 {
        fill: #008aab;
      }

      .cls-4 {
        fill: #26cad3;
      }
    </style>
  </defs>
  <g>
    <g>
      <path class="cls-4" d="M3.17,241c18.81-10.58,51.33-17.57,88.29-17.57s69.48,6.99,88.29,17.57c.67.38,1.47-.09,1.48-.86l1.69-148.67c0-25.27-10.25-48.13-26.78-64.69C139.6,10.22,116.71,0,91.46,0,40.94,0,0,40.94,0,91.46l1.69,148.67c0,.77.81,1.24,1.48.86Z"/>
      <path class="cls-3" d="M107.32,403.47c-4.19-.06-7.55-3.46-7.55-7.64,0-1.47.44-2.78,1.11-3.95-2.92-2.31-6.64-3.72-10.68-3.72-9.51,0-17.23,7.73-17.23,17.24s7.72,17.23,17.23,17.23,17.24-7.72,17.24-17.23c0-.67-.07-1.29-.12-1.93ZM107.32,403.47c-4.19-.06-7.55-3.46-7.55-7.64,0-1.47.44-2.78,1.11-3.95-2.92-2.31-6.64-3.72-10.68-3.72-9.51,0-17.23,7.73-17.23,17.24s7.72,17.23,17.23,17.23,17.24-7.72,17.24-17.23c0-.67-.07-1.29-.12-1.93ZM107.32,403.47c-4.19-.06-7.55-3.46-7.55-7.64,0-1.47.44-2.78,1.11-3.95-2.92-2.31-6.64-3.72-10.68-3.72-9.51,0-17.23,7.73-17.23,17.24s7.72,17.23,17.23,17.23,17.24-7.72,17.24-17.23c0-.67-.07-1.29-.12-1.93ZM107.32,403.47c-4.19-.06-7.55-3.46-7.55-7.64,0-1.47.44-2.78,1.11-3.95-2.92-2.31-6.64-3.72-10.68-3.72-9.51,0-17.23,7.73-17.23,17.24s7.72,17.23,17.23,17.23,17.24-7.72,17.24-17.23c0-.67-.07-1.29-.12-1.93ZM107.32,403.47c-4.19-.06-7.55-3.46-7.55-7.64,0-1.47.44-2.78,1.11-3.95-2.92-2.31-6.64-3.72-10.68-3.72-9.51,0-17.23,7.73-17.23,17.24s7.72,17.23,17.23,17.23,17.24-7.72,17.24-17.23c0-.67-.07-1.29-.12-1.93ZM107.32,403.47c-4.19-.06-7.55-3.46-7.55-7.64,0-1.47.44-2.78,1.11-3.95-2.92-2.31-6.64-3.72-10.68-3.72-9.51,0-17.23,7.73-17.23,17.24s7.72,17.23,17.23,17.23,17.24-7.72,17.24-17.23c0-.67-.07-1.29-.12-1.93ZM91.36,372.64c-21.66,0-47.25,21.65-47.25,31.93,0,.27.01.54.03.81.95,13.97,25.97,32.73,47.22,32.74,21.49.02,47.26-20.9,47.45-32.61v-.13c0-8.92-25.44-32.74-47.45-32.74ZM111.35,402.36c.15.99.24,1.98.24,3.04,0,11.78-9.6,21.38-21.39,21.38s-21.42-9.6-21.42-21.38,9.64-21.42,21.42-21.42c5.24,0,10.04,1.91,13.75,5.03,1.06-.52,2.23-.85,3.49-.85,4.21,0,7.63,3.43,7.63,7.67,0,2.78-1.49,5.18-3.72,6.53ZM99.77,395.83c0-1.47.44-2.78,1.11-3.95-2.92-2.31-6.64-3.72-10.68-3.72-9.51,0-17.23,7.73-17.23,17.24s7.72,17.23,17.23,17.23,17.24-7.72,17.24-17.23c0-.67-.07-1.29-.12-1.93-4.19-.06-7.55-3.46-7.55-7.64ZM107.32,403.47c-4.19-.06-7.55-3.46-7.55-7.64,0-1.47.44-2.78,1.11-3.95-2.92-2.31-6.64-3.72-10.68-3.72-9.51,0-17.23,7.73-17.23,17.24s7.72,17.23,17.23,17.23,17.24-7.72,17.24-17.23c0-.67-.07-1.29-.12-1.93ZM107.32,403.47c-4.19-.06-7.55-3.46-7.55-7.64,0-1.47.44-2.78,1.11-3.95-2.92-2.31-6.64-3.72-10.68-3.72-9.51,0-17.23,7.73-17.23,17.24s7.72,17.23,17.23,17.23,17.24-7.72,17.24-17.23c0-.67-.07-1.29-.12-1.93ZM107.32,403.47c-4.19-.06-7.55-3.46-7.55-7.64,0-1.47.44-2.78,1.11-3.95-2.92-2.31-6.64-3.72-10.68-3.72-9.51,0-17.23,7.73-17.23,17.24s7.72,17.23,17.23,17.23,17.24-7.72,17.24-17.23c0-.67-.07-1.29-.12-1.93ZM107.32,403.47c-4.19-.06-7.55-3.46-7.55-7.64,0-1.47.44-2.78,1.11-3.95-2.92-2.31-6.64-3.72-10.68-3.72-9.51,0-17.23,7.73-17.23,17.24s7.72,17.23,17.23,17.23,17.24-7.72,17.24-17.23c0-.67-.07-1.29-.12-1.93Z"/>
      <path class="cls-3" d="M161.62,250.7c-18.63-6.12-43.21-9.83-70.16-9.83s-51.52,3.71-70.13,9.8c-11.64,3.8-19.34,14.83-19.22,27.03l.06,5.03.17,17.53.4,33.02v1.91s.01.59.01.59c.06,7.22,4.89,13.31,11.44,15.36v18.81c0,4.68,2.52,8.81,6.3,11-.15,1.73-.24,3.45-.24,5.21,0,36.01,31.89,65.22,71.21,65.22s71.18-29.21,71.18-65.22c0-1.76-.08-3.48-.23-5.21,3.77-2.19,6.3-6.32,6.3-11v-18.81c6.58-2.05,11.37-8.14,11.43-15.36v-.62l.44-34.93.18-17.53.06-4.97c.11-12.23-7.58-23.23-19.2-27.03ZM138.82,406.28c.05-.25.05-.52,0-.77-.19,11.71-25.96,32.63-47.45,32.61-21.25-.01-46.27-18.77-47.22-32.74-.05.3-.06.6-.03.9-.04-.12-.08-.24-.1-.37.04-.17.09-.35.13-.53-.02-.27-.03-.54-.03-.81,0-10.28,25.59-31.93,47.25-31.93s47.45,23.82,47.45,32.74v.13c.04.13.07.27.11.4-.03.13-.06.25-.1.37ZM161.3,375.48c-.51.82-1.64,2.09-2.75,1.58-.38-.17-.66-.5-.94-.81-2.04-2.28-4.4-4.07-6.96-5.72-3.4-2.19-7.02-4.03-10.74-5.62-7.86-3.36-16.23-5.47-24.69-6.75-16.97-2.63-34.58-2.2-51.5.85-2.57.47-5.12,1-7.66,1.61-6.32,1.61-12.55,3.68-18.4,6.61-2.9,1.46-5.71,3.13-8.29,5.09-1.45,1.08-2.56,1.96-3.79,3.28-1.06,1.13-2.26,2.19-3.57.72-.56-.58-1.11-1.19-1.35-1.98-1.02-3.08,6.2-6.79,8.3-8.08,12.56-7.6,27.45-11.23,41.87-13.07,16.39-2.14,33.21-1.88,49.48,1.11,7.61,1.4,15.16,3.42,22.33,6.37,6.11,2.5,13.39,5.77,18.04,10.59.56.59,1.14,1.27,1.21,2.11.05.73-.21,1.46-.59,2.11ZM173.09,338.7c-.12.94-1.05,2.61-1.64,3.34-.52.64-1.17,1.29-1.99,1.29-.84.02-1.55-.65-2.1-1.32-2.05-2.52-5.39-5.12-8.22-6.67-3.14-1.7-6.38-3.19-9.72-4.51-7.17-2.81-14.66-4.8-22.23-6.26-16.21-3.07-32.92-3.69-49.39-2.52-14.83,1.06-29.9,3.49-43.92,8.72-.52.21-1.08.41-1.61.62-2.71,1.05-5.34,2.29-7.89,3.68-3.14,1.71-6.45,3.57-8.53,6.57-.22.32-.43.66-.75.88-1.17.82-3.09-.34-3.57-1.51,0,0-1.02-1.49-1.02-2.34,0-1.69,6.4-5.88,8.89-7.22,3.48-1.91,7.2-3.6,10.91-4.98,37.37-13.78,96.67-13.81,132.54,4.3,2.05,1.03,4.04,2.23,5.94,3.54,1.46,1.03,4.59,2.26,4.3,4.39Z"/>
      <path class="cls-3" d="M180.14,335.16v.62l.03-.59-.03-.03Z"/>
    </g>
    <path class="cls-4" d="M107.32,403.47c.05.64.12,1.26.12,1.93,0,9.51-7.72,17.23-17.24,17.23s-17.23-7.72-17.23-17.23,7.72-17.24,17.23-17.24c4.04,0,7.76,1.41,10.68,3.72-.67,1.17-1.11,2.48-1.11,3.95,0,4.18,3.36,7.58,7.55,7.64Z"/>
    <path class="cls-4" d="M91.36,372.64c-21.66,0-47.25,21.65-47.25,31.93,0,.27.01.54.03.81.95,13.97,25.97,32.73,47.22,32.74,21.49.02,47.26-20.9,47.45-32.61v-.13c0-8.92-25.44-32.74-47.45-32.74ZM111.35,402.36c.15.99.24,1.98.24,3.04,0,11.78-9.6,21.38-21.39,21.38s-21.42-9.6-21.42-21.38,9.64-21.42,21.42-21.42c5.24,0,10.04,1.91,13.75,5.03,1.06-.52,2.23-.85,3.49-.85,4.21,0,7.63,3.43,7.63,7.67,0,2.78-1.49,5.18-3.72,6.53Z"/>
    <path class="cls-2" d="M107.44,405.4c0,9.51-7.72,17.23-17.24,17.23s-17.23-7.72-17.23-17.23,7.72-17.24,17.23-17.24c4.04,0,7.76,1.41,10.68,3.72-.67,1.17-1.11,2.48-1.11,3.95,0,4.18,3.36,7.58,7.55,7.64.05.64.12,1.26.12,1.93Z"/>
  </g>
  <g>
    <path class="cls-3" d="M268.19,212.24c-5.02,0-10.19-.53-15.53-1.58-5.34-1.05-9.79-2.22-13.35-3.52v-23.79c3.4.49,7.12.93,11.16,1.34,4.04.41,7.77.61,11.16.61,4.53,0,8.33-.68,11.41-2.06,3.07-1.37,5.46-3.56,7.16-6.55,1.7-2.99,2.55-7.16,2.55-12.5V31.66h30.1v136.89c0,10.03-1.58,18.29-4.73,24.76-3.15,6.47-8.01,11.25-14.56,14.32-6.55,3.08-15.01,4.61-25.36,4.61Z"/>
    <path class="cls-3" d="M331.08,210.78l58.25-179.12h37.86l58.25,179.12h-31.31l-13.84-42.47h-64.8l-13.59,42.47h-30.82ZM382.54,141.36h50.48l-25.24-83.98-25.24,83.98Z"/>
    <path class="cls-3" d="M502.68,210.78l20.63-179.12h29.12l43.45,143.44,43.2-143.44h29.12l21.12,179.12h-29.13l-16.5-140.78,4.85.49-38.83,140.29h-28.16l-39.32-140.29,5.09-.24-15.78,140.53h-28.88Z"/>
    <path class="cls-3" d="M717.73,210.78V31.66h72.82c6.63,0,12.9.77,18.81,2.31,5.9,1.54,11.16,4.33,15.78,8.37,4.61,4.05,8.25,9.67,10.92,16.87,2.67,7.2,4,16.54,4,28.03,0,8.9-.89,16.3-2.67,22.21-1.78,5.91-4.13,10.72-7.04,14.44-2.91,3.72-6.19,6.6-9.83,8.62-3.64,2.02-7.24,3.68-10.8,4.98l34.47,73.3h-30.34l-31.07-68.93h-7.89c-2.99,0-6.11-.04-9.35-.12-3.24-.08-6.39-.16-9.47-.24-3.07-.08-5.91-.12-8.5-.12v69.42h-29.86ZM747.58,117.82h37.86c3.56,0,6.8-.44,9.71-1.34,2.91-.89,5.5-2.46,7.77-4.73,2.26-2.26,4-5.34,5.22-9.22,1.22-3.88,1.82-8.9,1.82-15.05s-.61-10.88-1.82-14.68c-1.22-3.8-2.95-6.71-5.22-8.74-2.27-2.02-4.89-3.44-7.89-4.25-2.99-.81-6.19-1.21-9.59-1.21h-37.86v59.22Z"/>
    <path class="cls-4" d="M907.29,211.75c-4.05,0-8.13-.36-12.26-1.09-4.13-.73-8.01-2.18-11.65-4.37-3.64-2.18-6.6-5.5-8.86-9.95-2.27-4.45-3.4-10.4-3.4-17.84v-111.65c0-6.63.97-12.14,2.92-16.51,1.94-4.37,4.53-7.85,7.77-10.44,3.24-2.59,6.83-4.45,10.8-5.58,3.96-1.13,7.97-1.7,12.01-1.7,9.23.16,18,.33,26.34.49,8.33.16,16.42.36,24.27.61,7.84.24,15.49.53,22.94.85v10.92h-70.63c-6.79,0-12.22,1.82-16.26,5.46-4.05,3.64-6.07,9.51-6.07,17.6v47.33l82.77,1.21v10.44l-82.77,1.21v47.09c0,6.64,1.17,11.57,3.52,14.8,2.34,3.24,5.38,5.38,9.1,6.43,3.72,1.06,7.52,1.58,11.41,1.58h68.93v10.92c-7.44.33-15.17.61-23.18.85s-15.98.49-23.91.73c-7.93.24-15.86.44-23.79.61Z"/>
    <path class="cls-4" d="M1052.98,210.78v-60.68l-57.52-117.48h14.8l50,103.4,50-103.4h14.56l-57.77,117.48v60.68h-14.08Z"/>
    <path class="cls-4" d="M1171.76,211.75c-4.05,0-8.13-.36-12.26-1.09-4.13-.73-8.01-2.18-11.65-4.37-3.64-2.18-6.6-5.5-8.86-9.95-2.27-4.45-3.4-10.4-3.4-17.84v-111.65c0-6.63.97-12.14,2.92-16.51,1.94-4.37,4.53-7.85,7.77-10.44,3.24-2.59,6.83-4.45,10.8-5.58,3.96-1.13,7.97-1.7,12.01-1.7,9.23.16,18,.33,26.34.49,8.33.16,16.42.36,24.27.61,7.84.24,15.49.53,22.94.85v10.92h-70.63c-6.79,0-12.22,1.82-16.26,5.46-4.05,3.64-6.07,9.51-6.07,17.6v47.33l82.77,1.21v10.44l-82.77,1.21v47.09c0,6.64,1.17,11.57,3.52,14.8,2.34,3.24,5.38,5.38,9.1,6.43,3.72,1.06,7.52,1.58,11.41,1.58h68.93v10.92c-7.44.33-15.17.61-23.18.85s-15.98.49-23.91.73c-7.93.24-15.86.44-23.79.61Z"/>
    <rect class="cls-4" x="267.69" y="268.35" width="16.78" height="137.88"/>
    <g>
      <path class="cls-2" d="M316.07,323.42v-55.07h21.77c3.34,0,6.16.61,8.46,1.83,2.29,1.22,4.15,3.01,5.57,5.35,1.42,2.34,2.46,5.22,3.11,8.64.65,3.42.97,7.32.97,11.71,0,5.79-.67,10.72-2.02,14.82-1.35,4.09-3.37,7.23-6.06,9.43-2.69,2.2-6.04,3.29-10.03,3.29h-21.77ZM322.05,318.11h15.34c2.94,0,5.34-.91,7.18-2.73,1.85-1.82,3.22-4.39,4.11-7.71.9-3.32,1.35-7.24,1.35-11.78,0-4.09-.25-7.54-.75-10.36s-1.26-5.1-2.28-6.85c-1.02-1.75-2.33-3.01-3.93-3.78-1.6-.77-3.49-1.16-5.68-1.16h-15.34v44.37Z"/>
      <path class="cls-2" d="M373.08,323.87c-2.94,0-5.36-.87-7.26-2.62-1.9-1.74-2.84-4.21-2.84-7.41v-2.84c0-3.14,1.04-5.69,3.11-7.63s5.2-2.92,9.39-2.92h13.54v-4.94c0-1.65-.29-3.05-.86-4.23-.57-1.17-1.6-2.08-3.07-2.73-1.47-.65-3.6-.97-6.4-.97h-12.42v-3.52c1.75-.3,3.78-.57,6.1-.82,2.32-.25,5.05-.37,8.19-.37,3.24-.05,5.94.35,8.08,1.2,2.14.85,3.73,2.18,4.75,4,1.02,1.82,1.53,4.2,1.53,7.15v28.21h-4.56l-1.12-4.57c-.2.2-.81.55-1.83,1.05-1.02.5-2.32,1.06-3.89,1.68-1.57.62-3.27,1.16-5.09,1.61s-3.6.67-5.35.67ZM375.55,319.46c.9.05,1.92-.05,3.07-.3,1.15-.25,2.32-.54,3.52-.86,1.2-.32,2.31-.66,3.33-1.01,1.02-.35,1.86-.65,2.51-.9.65-.25,1-.37,1.05-.37v-12.57l-12.2.52c-2.84.1-4.88.8-6.1,2.1-1.22,1.3-1.83,2.97-1.83,5.01v1.8c0,1.6.34,2.88,1.01,3.85.67.97,1.52,1.66,2.54,2.06,1.02.4,2.06.62,3.1.67Z"/>
      <path class="cls-2" d="M419.85,323.87c-1,0-2.22-.03-3.67-.07-1.45-.05-2.96-.13-4.53-.22-1.57-.1-2.99-.21-4.26-.34-1.27-.12-2.26-.26-2.96-.41v-3.59h16.39c1.65,0,3.07-.12,4.27-.37,1.2-.25,2.13-.8,2.81-1.65.67-.85,1.01-2.12,1.01-3.82v-1.8c0-1.74-.57-3.11-1.72-4.08-1.15-.97-2.99-1.46-5.54-1.46h-5.61c-2.35,0-4.43-.3-6.25-.9-1.82-.6-3.23-1.62-4.23-3.07-1-1.44-1.5-3.44-1.5-5.98v-2.1c0-2.49.49-4.54,1.46-6.14.97-1.6,2.49-2.79,4.56-3.59,2.07-.8,4.75-1.2,8.05-1.2,1.4,0,3,.05,4.82.15,1.82.1,3.6.24,5.35.41,1.75.18,3.17.36,4.27.56v3.59h-15.41c-2.54,0-4.5.42-5.87,1.27-1.37.85-2.06,2.5-2.06,4.94v1.65c0,1.55.33,2.71.97,3.48.65.77,1.56,1.29,2.73,1.53,1.17.25,2.53.37,4.08.37h5.69c3.64,0,6.46.85,8.46,2.54,1.99,1.7,2.99,4.14,2.99,7.33v2.77c0,2.69-.61,4.78-1.83,6.25-1.22,1.47-2.89,2.5-5.01,3.07-2.12.57-4.6.86-7.44.86Z"/>
      <path class="cls-2" d="M443.49,323.42v-57.09h5.91v21.55c1.85-1.35,4.05-2.53,6.62-3.55,2.57-1.02,5.25-1.53,8.04-1.53s5.1.6,6.92,1.8c1.82,1.2,3.17,2.82,4.04,4.86.87,2.05,1.31,4.31,1.31,6.81v27.16h-5.91v-26.56c0-1.7-.34-3.19-1.01-4.49-.67-1.3-1.63-2.32-2.88-3.07-1.25-.75-2.74-1.12-4.49-1.12-1.65,0-3.17.16-4.57.49-1.4.33-2.74.77-4.04,1.35-1.3.58-2.65,1.26-4.04,2.06v31.35h-5.91Z"/>
      <path class="cls-2" d="M506.72,323.87c-1.9,0-3.66-.24-5.28-.71-1.62-.47-3.11-1.05-4.45-1.72-1.35-.67-2.54-1.36-3.59-2.06l-1.12,4.04h-4.79v-57.09h5.91v20.8c1.89-1.1,4.04-2.07,6.43-2.92,2.39-.85,4.61-1.27,6.66-1.27,3.19,0,5.84.67,7.93,2.02,2.09,1.35,3.68,3.54,4.75,6.58,1.07,3.04,1.61,7.11,1.61,12.2,0,4.14-.47,7.72-1.42,10.74-.95,3.02-2.46,5.34-4.53,6.96-2.07,1.62-4.78,2.43-8.12,2.43ZM504.85,318.93c2.19,0,4.03-.56,5.5-1.68,1.47-1.12,2.59-2.83,3.37-5.13.77-2.29,1.16-5.16,1.16-8.6,0-4.39-.44-7.69-1.31-9.92-.88-2.22-2.06-3.73-3.55-4.53-1.5-.8-3.22-1.2-5.16-1.2-2.25,0-4.25.31-6.02.94-1.77.62-3.58,1.43-5.42,2.43v24.47c1.55.75,3.26,1.47,5.13,2.17,1.87.7,3.98,1.05,6.32,1.05Z"/>
      <path class="cls-2" d="M546.6,323.87c-2.89,0-5.42-.3-7.59-.9-2.17-.6-3.98-1.65-5.43-3.14-1.45-1.5-2.52-3.58-3.22-6.25-.7-2.67-1.05-6.07-1.05-10.21s.35-7.62,1.05-10.29c.7-2.67,1.77-4.74,3.22-6.21,1.45-1.47,3.26-2.49,5.43-3.07s4.7-.86,7.59-.86,5.43.3,7.6.9,3.98,1.63,5.43,3.11c1.45,1.47,2.53,3.54,3.26,6.21.72,2.67,1.09,6.07,1.09,10.21s-.36,7.62-1.09,10.29c-.72,2.67-1.8,4.74-3.22,6.21-1.42,1.47-3.23,2.51-5.43,3.11-2.2.6-4.74.9-7.63.9ZM546.6,319.01c1.85,0,3.48-.17,4.9-.52,1.42-.35,2.6-1.05,3.55-2.1.95-1.05,1.67-2.62,2.17-4.71.5-2.1.75-4.86.75-8.3s-.25-6.26-.75-8.31c-.5-2.04-1.22-3.59-2.17-4.64-.95-1.05-2.13-1.75-3.55-2.1-1.42-.35-3.06-.52-4.9-.52s-3.54.18-4.94.52c-1.4.35-2.57,1.05-3.52,2.1-.95,1.05-1.67,2.59-2.17,4.64-.5,2.05-.75,4.82-.75,8.31s.25,6.21.75,8.3c.5,2.1,1.22,3.67,2.17,4.71.95,1.05,2.12,1.75,3.52,2.1,1.4.35,3.04.52,4.94.52Z"/>
      <path class="cls-2" d="M581.69,323.87c-2.94,0-5.36-.87-7.26-2.62-1.9-1.74-2.84-4.21-2.84-7.41v-2.84c0-3.14,1.03-5.69,3.11-7.63,2.07-1.95,5.2-2.92,9.39-2.92h13.54v-4.94c0-1.65-.29-3.05-.86-4.23s-1.6-2.08-3.07-2.73c-1.47-.65-3.6-.97-6.4-.97h-12.42v-3.52c1.74-.3,3.78-.57,6.1-.82,2.32-.25,5.05-.37,8.19-.37,3.24-.05,5.94.35,8.08,1.2,2.14.85,3.73,2.18,4.75,4,1.02,1.82,1.53,4.2,1.53,7.15v28.21h-4.57l-1.12-4.57c-.2.2-.81.55-1.83,1.05s-2.32,1.06-3.89,1.68c-1.57.62-3.27,1.16-5.09,1.61-1.82.45-3.61.67-5.35.67ZM584.16,319.46c.9.05,1.92-.05,3.07-.3,1.15-.25,2.32-.54,3.51-.86,1.2-.32,2.31-.66,3.33-1.01,1.02-.35,1.86-.65,2.51-.9.65-.25,1-.37,1.05-.37v-12.57l-12.2.52c-2.84.1-4.87.8-6.1,2.1-1.22,1.3-1.83,2.97-1.83,5.01v1.8c0,1.6.34,2.88,1.01,3.85.67.97,1.52,1.66,2.54,2.06,1.02.4,2.06.62,3.11.67Z"/>
      <path class="cls-2" d="M614.69,323.42v-39.96h4.49l1.42,6.96c1.8-2.14,3.8-3.92,6.02-5.31,2.22-1.4,4.78-2.09,7.67-2.09.7,0,1.36.03,1.98.07s1.21.15,1.76.3v6.06c-.65-.1-1.34-.19-2.09-.26s-1.5-.11-2.25-.11c-1.85,0-3.49.22-4.94.67-1.45.45-2.82,1.12-4.12,2.02-1.3.9-2.65,1.99-4.04,3.29v28.36h-5.91Z"/>
      <path class="cls-2" d="M658.46,323.87c-3.3,0-6-.71-8.12-2.13-2.12-1.42-3.69-3.62-4.71-6.58-1.02-2.97-1.53-6.77-1.53-11.41,0-4.94.5-8.94,1.5-12.01,1-3.07,2.59-5.3,4.79-6.7,2.19-1.4,5.14-2.1,8.83-2.1,2.25,0,4.44.25,6.59.75,2.14.5,4.04,1.05,5.68,1.65v-19h5.91v57.09h-4.79l-1.12-4.04c-.75.65-1.86,1.32-3.33,2.02-1.47.7-3.07,1.28-4.79,1.76-1.72.47-3.35.71-4.9.71ZM660.18,319.01c2.29,0,4.38-.36,6.25-1.09,1.87-.72,3.55-1.48,5.05-2.28v-26.11c-1.79-.55-3.52-1.01-5.16-1.38-1.65-.37-3.49-.56-5.54-.56-2.54,0-4.61.47-6.21,1.42-1.6.95-2.76,2.58-3.48,4.9-.72,2.32-1.09,5.53-1.09,9.62,0,3.69.34,6.68,1.01,8.98.67,2.29,1.76,3.95,3.26,4.98,1.49,1.02,3.46,1.53,5.91,1.53Z"/>
      <path class="cls-2" d="M724.6,323.87c-2.89,0-5.43-.3-7.59-.9-2.17-.6-3.98-1.65-5.43-3.14s-2.52-3.58-3.22-6.25c-.7-2.67-1.05-6.07-1.05-10.21s.35-7.62,1.05-10.29c.7-2.67,1.77-4.74,3.22-6.21,1.45-1.47,3.26-2.49,5.43-3.07,2.17-.57,4.7-.86,7.59-.86s5.43.3,7.6.9,3.98,1.63,5.43,3.11c1.45,1.47,2.53,3.54,3.26,6.21.72,2.67,1.09,6.07,1.09,10.21s-.37,7.62-1.09,10.29c-.72,2.67-1.8,4.74-3.22,6.21-1.42,1.47-3.23,2.51-5.43,3.11-2.2.6-4.74.9-7.63.9ZM724.6,319.01c1.85,0,3.48-.17,4.9-.52,1.42-.35,2.6-1.05,3.55-2.1.95-1.05,1.67-2.62,2.17-4.71.5-2.1.75-4.86.75-8.3s-.25-6.26-.75-8.31c-.5-2.04-1.22-3.59-2.17-4.64-.95-1.05-2.13-1.75-3.55-2.1-1.42-.35-3.06-.52-4.9-.52s-3.54.18-4.94.52c-1.4.35-2.57,1.05-3.52,2.1-.95,1.05-1.67,2.59-2.17,4.64-.5,2.05-.75,4.82-.75,8.31s.25,6.21.75,8.3c.5,2.1,1.22,3.67,2.17,4.71.95,1.05,2.12,1.75,3.52,2.1,1.4.35,3.04.52,4.94.52Z"/>
      <path class="cls-2" d="M754.08,323.42v-35.09h-6.13v-3.82l6.13-1.05v-4.56c0-2.84.35-5.22,1.05-7.15.7-1.92,1.87-3.38,3.52-4.38,1.64-1,3.94-1.5,6.88-1.5,1.75,0,3.23.09,4.45.26,1.22.18,2.31.34,3.26.49v4.19h-6.66c-1.8,0-3.17.29-4.12.86-.95.57-1.6,1.45-1.94,2.62-.35,1.17-.53,2.61-.53,4.3v4.86h12.42v4.86h-12.42v35.09h-5.91Z"/>
      <path class="cls-2" d="M799.65,323.42v-39.96h4.64l1.27,4.42c1.9-1.35,4.12-2.53,6.66-3.55,2.54-1.02,5.19-1.53,7.93-1.53,2.94,0,5.31.62,7.11,1.87,1.79,1.25,3.12,2.89,3.96,4.94.85,2.05,1.27,4.27,1.27,6.66v27.16h-5.91v-26.49c0-1.7-.34-3.2-1.01-4.53-.68-1.32-1.62-2.36-2.84-3.11-1.22-.75-2.73-1.12-4.53-1.12-1.65,0-3.18.16-4.6.49-1.42.33-2.77.77-4.04,1.35-1.27.58-2.61,1.26-4,2.06v31.35h-5.91Z"/>
      <path class="cls-2" d="M851.43,323.87c-2.94,0-5.36-.87-7.26-2.62-1.9-1.74-2.84-4.21-2.84-7.41v-2.84c0-3.14,1.03-5.69,3.11-7.63,2.07-1.95,5.2-2.92,9.39-2.92h13.54v-4.94c0-1.65-.29-3.05-.86-4.23s-1.6-2.08-3.07-2.73c-1.47-.65-3.6-.97-6.4-.97h-12.42v-3.52c1.74-.3,3.78-.57,6.1-.82,2.32-.25,5.05-.37,8.19-.37,3.24-.05,5.94.35,8.08,1.2,2.14.85,3.73,2.18,4.75,4,1.02,1.82,1.53,4.2,1.53,7.15v28.21h-4.57l-1.12-4.57c-.2.2-.81.55-1.83,1.05-1.02.5-2.32,1.06-3.89,1.68-1.57.62-3.27,1.16-5.09,1.61-1.82.45-3.61.67-5.35.67ZM853.9,319.46c.9.05,1.92-.05,3.07-.3,1.15-.25,2.32-.54,3.51-.86,1.2-.32,2.31-.66,3.33-1.01,1.02-.35,1.86-.65,2.51-.9.65-.25,1-.37,1.05-.37v-12.57l-12.2.52c-2.84.1-4.87.8-6.1,2.1-1.22,1.3-1.83,2.97-1.83,5.01v1.8c0,1.6.34,2.88,1.01,3.85.67.97,1.52,1.66,2.54,2.06,1.02.4,2.06.62,3.11.67Z"/>
      <path class="cls-2" d="M897.67,323.42c-2.59,0-4.74-.42-6.43-1.27-1.7-.85-2.94-2.22-3.74-4.12-.8-1.9-1.17-4.42-1.12-7.56l.22-22.15h-6.36v-3.82l6.43-1.05.97-11.15h4.56v11.15h11.52v4.86h-11.52v22.15c0,1.75.19,3.14.56,4.19.37,1.05.87,1.85,1.5,2.39.62.55,1.28.94,1.98,1.16s1.37.36,2.02.41l4.86.45v4.34h-5.46Z"/>
      <path class="cls-2" d="M912.78,276.36c-.8,0-1.19-.4-1.19-1.2v-5.84c0-.8.4-1.2,1.19-1.2h4.19c.4,0,.69.11.86.34.17.22.26.51.26.86v5.84c0,.8-.37,1.2-1.12,1.2h-4.19ZM911.88,323.42v-39.96h5.91v39.96h-5.91Z"/>
      <path class="cls-2" d="M945.03,323.87c-2.89,0-5.43-.3-7.59-.9-2.17-.6-3.98-1.65-5.43-3.14-1.45-1.5-2.52-3.58-3.22-6.25s-1.05-6.07-1.05-10.21.35-7.62,1.05-10.29,1.77-4.74,3.22-6.21c1.45-1.47,3.26-2.49,5.43-3.07,2.17-.57,4.7-.86,7.59-.86s5.43.3,7.6.9c2.17.6,3.98,1.63,5.43,3.11,1.45,1.47,2.53,3.54,3.26,6.21.72,2.67,1.09,6.07,1.09,10.21s-.37,7.62-1.09,10.29c-.72,2.67-1.8,4.74-3.22,6.21-1.42,1.47-3.23,2.51-5.43,3.11-2.2.6-4.74.9-7.63.9ZM945.03,319.01c1.85,0,3.48-.17,4.9-.52,1.42-.35,2.6-1.05,3.55-2.1.95-1.05,1.67-2.62,2.17-4.71.5-2.1.75-4.86.75-8.3s-.25-6.26-.75-8.31c-.5-2.04-1.22-3.59-2.17-4.64-.95-1.05-2.13-1.75-3.55-2.1-1.42-.35-3.06-.52-4.9-.52s-3.54.18-4.94.52c-1.4.35-2.57,1.05-3.52,2.1-.95,1.05-1.67,2.59-2.17,4.64-.5,2.05-.75,4.82-.75,8.31s.25,6.21.75,8.3c.5,2.1,1.22,3.67,2.17,4.71.95,1.05,2.12,1.75,3.52,2.1,1.4.35,3.04.52,4.94.52Z"/>
      <path class="cls-2" d="M972.34,323.42v-39.96h4.64l1.27,4.42c1.9-1.35,4.12-2.53,6.66-3.55,2.54-1.02,5.19-1.53,7.93-1.53,2.94,0,5.31.62,7.11,1.87,1.79,1.25,3.12,2.89,3.96,4.94.85,2.05,1.27,4.27,1.27,6.66v27.16h-5.91v-26.49c0-1.7-.34-3.2-1.01-4.53-.68-1.32-1.62-2.36-2.84-3.11-1.22-.75-2.73-1.12-4.53-1.12-1.65,0-3.18.16-4.6.49-1.42.33-2.77.77-4.04,1.35-1.27.58-2.61,1.26-4,2.06v31.35h-5.91Z"/>
      <path class="cls-2" d="M1024.12,323.87c-2.94,0-5.36-.87-7.26-2.62-1.9-1.74-2.84-4.21-2.84-7.41v-2.84c0-3.14,1.03-5.69,3.11-7.63,2.07-1.95,5.2-2.92,9.39-2.92h13.54v-4.94c0-1.65-.29-3.05-.86-4.23-.57-1.17-1.6-2.08-3.07-2.73-1.47-.65-3.6-.97-6.4-.97h-12.42v-3.52c1.74-.3,3.78-.57,6.1-.82,2.32-.25,5.05-.37,8.19-.37,3.24-.05,5.94.35,8.08,1.2,2.14.85,3.73,2.18,4.75,4,1.02,1.82,1.53,4.2,1.53,7.15v28.21h-4.57l-1.12-4.57c-.2.2-.81.55-1.83,1.05s-2.32,1.06-3.89,1.68c-1.57.62-3.27,1.16-5.09,1.61-1.82.45-3.61.67-5.35.67ZM1026.59,319.46c.9.05,1.92-.05,3.07-.3,1.15-.25,2.32-.54,3.51-.86,1.2-.32,2.31-.66,3.33-1.01,1.02-.35,1.86-.65,2.51-.9.65-.25,1-.37,1.05-.37v-12.57l-12.2.52c-2.84.1-4.87.8-6.1,2.1-1.22,1.3-1.83,2.97-1.83,5.01v1.8c0,1.6.34,2.88,1.01,3.85.67.97,1.52,1.66,2.54,2.06,1.02.4,2.06.62,3.11.67Z"/>
      <path class="cls-2" d="M1067.6,323.5c-2.29,0-4.22-.41-5.76-1.23-1.55-.82-2.72-2.17-3.52-4.04-.8-1.87-1.2-4.4-1.2-7.59v-44.3h5.91v43.55c0,2.39.23,4.2.68,5.43.45,1.22,1.1,2.07,1.94,2.54.85.47,1.85.79,2.99.94l4.04.45v4.27h-5.09Z"/>
      <path class="cls-2" d="M312.85,401.99l18.86-55.07h7.63l18.86,55.07h-6.13l-5.54-15.71h-22.15l-5.39,15.71h-6.13ZM325.87,380.89h19.15l-9.5-28.73-9.65,28.73Z"/>
      <path class="cls-2" d="M365,401.99l6.28-55.07h6.06l14.67,47.59,14.37-47.59h6.13l6.44,55.07h-5.76l-5.54-48.26.97.15-13.92,48.11h-5.46l-14.29-48.04,1.12-.15-5.31,48.19h-5.76Z"/>
      <path class="cls-2" d="M428.98,401.99v-55.07h21.7c1.8,0,3.54.21,5.24.64,1.7.42,3.23,1.21,4.6,2.36,1.37,1.15,2.46,2.78,3.25,4.9.8,2.12,1.2,4.9,1.2,8.34,0,2.99-.33,5.45-.97,7.37-.65,1.92-1.5,3.44-2.54,4.57-1.05,1.12-2.18,1.95-3.41,2.47-1.22.52-2.41.89-3.55,1.08l11.3,23.35h-6.06l-10.7-22.52c-.8,0-1.8-.02-2.99-.07-1.2-.05-2.47-.07-3.82-.07s-2.66-.02-3.93-.07c-1.27-.05-2.38-.07-3.33-.07v22.82h-5.99ZM434.96,374.6h14.82c1.3,0,2.49-.15,3.59-.45,1.1-.3,2.07-.86,2.92-1.68.85-.82,1.52-1.98,2.02-3.48.5-1.5.75-3.44.75-5.84s-.25-4.15-.75-5.58-1.19-2.52-2.06-3.29c-.87-.77-1.86-1.3-2.96-1.57-1.1-.27-2.27-.41-3.52-.41h-14.82v22.3Z"/>
      <path class="cls-2" d="M508.36,402.44c-1,0-2.22-.03-3.67-.07-1.45-.05-2.96-.13-4.53-.22-1.57-.1-2.99-.21-4.26-.34-1.27-.12-2.26-.26-2.96-.41v-3.59h16.39c1.65,0,3.07-.12,4.27-.37,1.2-.25,2.13-.8,2.81-1.65.67-.85,1.01-2.12,1.01-3.82v-1.8c0-1.74-.57-3.11-1.72-4.08-1.15-.97-2.99-1.46-5.54-1.46h-5.61c-2.35,0-4.43-.3-6.25-.9-1.82-.6-3.23-1.62-4.23-3.07-1-1.44-1.5-3.44-1.5-5.98v-2.1c0-2.49.49-4.54,1.46-6.14.97-1.6,2.49-2.79,4.56-3.59,2.07-.8,4.75-1.2,8.05-1.2,1.4,0,3,.05,4.82.15,1.82.1,3.6.24,5.35.41s3.17.36,4.27.56v3.59h-15.41c-2.54,0-4.5.42-5.87,1.27-1.37.85-2.06,2.5-2.06,4.94v1.65c0,1.55.33,2.71.97,3.48.65.77,1.56,1.29,2.73,1.53,1.17.25,2.53.37,4.08.37h5.69c3.64,0,6.46.85,8.46,2.54,1.99,1.7,2.99,4.14,2.99,7.33v2.77c0,2.69-.61,4.78-1.83,6.25-1.22,1.47-2.89,2.5-5.01,3.07-2.12.57-4.6.86-7.44.86Z"/>
      <path class="cls-2" d="M543.9,402.44c-3.84,0-6.8-1-8.87-2.99-2.07-1.99-3.11-5.09-3.11-9.28v-28.13h5.91v26.64c0,3.34.76,5.6,2.28,6.77,1.52,1.17,3.65,1.76,6.4,1.76,2.34,0,4.49-.34,6.44-1.01,1.95-.67,3.94-1.61,5.99-2.81v-31.35h5.91v39.96h-4.64l-1.27-4.42c-2.05,1.3-4.36,2.43-6.92,3.41-2.57.97-5.28,1.46-8.12,1.46Z"/>
      <path class="cls-2" d="M576,401.99v-39.96h4.49l1.42,6.96c1.8-2.14,3.8-3.92,6.02-5.31,2.22-1.4,4.78-2.09,7.67-2.09.7,0,1.36.03,1.98.07s1.21.15,1.76.3v6.06c-.65-.1-1.34-.19-2.09-.26-.75-.07-1.5-.11-2.25-.11-1.85,0-3.49.22-4.94.67s-2.82,1.12-4.12,2.02c-1.3.9-2.65,1.99-4.04,3.29v28.36h-5.91Z"/>
      <path class="cls-2" d="M617.61,401.99l-15.04-39.96h6.06l12.42,34.42,12.79-34.42h5.98l-15.49,39.96h-6.73Z"/>
      <path class="cls-2" d="M660.71,402.44c-4.19,0-7.49-.62-9.91-1.87-2.42-1.25-4.15-3.37-5.2-6.36-1.04-2.99-1.57-7.08-1.57-12.27s.54-9.42,1.61-12.38c1.07-2.97,2.83-5.05,5.28-6.25,2.44-1.2,5.73-1.8,9.88-1.8,3.54,0,6.42.4,8.64,1.2,2.22.8,3.87,2.16,4.94,4.08,1.07,1.92,1.61,4.58,1.61,7.97,0,2.34-.46,4.23-1.38,5.65-.92,1.42-2.24,2.44-3.96,3.07-1.72.62-3.76.94-6.1.94h-14.59c.05,3.24.4,5.85,1.05,7.82.65,1.97,1.83,3.39,3.55,4.26,1.72.88,4.25,1.31,7.6,1.31h12.87v3.59c-2.29.3-4.54.55-6.73.75s-4.71.3-7.56.3ZM649.86,380.51h14.22c2.24,0,3.9-.41,4.98-1.23,1.07-.82,1.61-2.31,1.61-4.45,0-2.29-.34-4.08-1.01-5.35-.68-1.27-1.72-2.17-3.14-2.69-1.42-.52-3.33-.79-5.73-.79-2.79,0-4.99.41-6.58,1.23-1.6.82-2.72,2.28-3.37,4.38-.65,2.1-.97,5.06-.97,8.9Z"/>
      <path class="cls-2" d="M686.82,354.92c-.8,0-1.19-.4-1.19-1.2v-5.84c0-.8.4-1.2,1.19-1.2h4.19c.4,0,.69.11.86.34.17.22.26.51.26.86v5.84c0,.8-.37,1.2-1.12,1.2h-4.19ZM685.92,401.99v-39.96h5.91v39.96h-5.91Z"/>
      <path class="cls-2" d="M713.68,402.06c-2.29,0-4.22-.41-5.76-1.23-1.55-.82-2.72-2.17-3.52-4.04-.8-1.87-1.2-4.4-1.2-7.59v-44.3h5.91v43.55c0,2.39.23,4.2.68,5.43s1.1,2.07,1.94,2.54c.85.47,1.85.79,2.99.94l4.04.45v4.27h-5.09Z"/>
      <path class="cls-2" d="M735.68,402.06c-2.29,0-4.22-.41-5.76-1.23-1.55-.82-2.72-2.17-3.52-4.04-.8-1.87-1.2-4.4-1.2-7.59v-44.3h5.91v43.55c0,2.39.23,4.2.68,5.43.45,1.22,1.1,2.07,1.94,2.54.85.47,1.85.79,2.99.94l4.04.45v4.27h-5.09Z"/>
      <path class="cls-2" d="M754.98,402.44c-2.94,0-5.36-.87-7.26-2.62-1.9-1.74-2.84-4.21-2.84-7.41v-2.84c0-3.14,1.03-5.69,3.11-7.63,2.07-1.95,5.2-2.92,9.39-2.92h13.54v-4.94c0-1.65-.29-3.05-.86-4.23-.57-1.17-1.6-2.08-3.07-2.73-1.47-.65-3.6-.97-6.4-.97h-12.42v-3.52c1.74-.3,3.78-.57,6.1-.82,2.32-.25,5.05-.37,8.19-.37,3.24-.05,5.94.35,8.08,1.2,2.14.85,3.73,2.18,4.75,4,1.02,1.82,1.53,4.2,1.53,7.15v28.21h-4.57l-1.12-4.57c-.2.2-.81.55-1.83,1.05-1.02.5-2.32,1.06-3.89,1.68-1.57.62-3.27,1.16-5.09,1.61-1.82.45-3.61.67-5.35.67ZM757.45,398.02c.9.05,1.92-.05,3.07-.3,1.15-.25,2.32-.54,3.51-.86,1.2-.32,2.31-.66,3.33-1.01,1.02-.35,1.86-.65,2.51-.9.65-.25,1-.37,1.05-.37v-12.57l-12.2.52c-2.84.1-4.87.8-6.1,2.1-1.22,1.3-1.83,2.97-1.83,5.01v1.8c0,1.6.34,2.88,1.01,3.85.67.97,1.52,1.66,2.54,2.06,1.02.4,2.06.62,3.11.67Z"/>
      <path class="cls-2" d="M787.98,401.99v-39.96h4.64l1.27,4.42c1.9-1.35,4.12-2.53,6.66-3.55,2.54-1.02,5.19-1.53,7.93-1.53,2.94,0,5.31.62,7.11,1.87,1.79,1.25,3.12,2.89,3.96,4.94.85,2.05,1.27,4.27,1.27,6.66v27.16h-5.91v-26.49c0-1.7-.34-3.2-1.01-4.53-.68-1.32-1.62-2.36-2.84-3.11-1.22-.75-2.73-1.12-4.53-1.12-1.65,0-3.18.16-4.6.49-1.42.33-2.77.77-4.04,1.35-1.27.58-2.61,1.26-4,2.06v31.35h-5.91Z"/>
      <path class="cls-2" d="M846.5,402.44c-2.25,0-4.34-.3-6.29-.9-1.94-.6-3.64-1.65-5.09-3.14-1.45-1.5-2.57-3.57-3.37-6.21-.8-2.64-1.2-6.01-1.2-10.1s.38-7.54,1.13-10.21c.75-2.67,1.82-4.75,3.22-6.25,1.4-1.5,3.09-2.54,5.09-3.14,1.99-.6,4.21-.9,6.66-.9,1.99,0,4.16.09,6.51.26,2.35.18,4.59.44,6.74.79v3.52h-11.67c-2.55,0-4.69.42-6.44,1.27-1.75.85-3.07,2.43-3.96,4.75-.9,2.32-1.35,5.68-1.35,10.07s.47,7.48,1.42,9.73c.95,2.25,2.29,3.78,4.04,4.6,1.75.82,3.87,1.23,6.36,1.23h12.2v3.44c-1.15.2-2.48.4-4,.6-1.52.2-3.13.35-4.83.45-1.7.1-3.42.15-5.16.15Z"/>
      <path class="cls-2" d="M883.91,402.44c-4.19,0-7.49-.62-9.91-1.87-2.42-1.25-4.15-3.37-5.2-6.36-1.04-2.99-1.57-7.08-1.57-12.27s.54-9.42,1.61-12.38c1.07-2.97,2.83-5.05,5.28-6.25,2.44-1.2,5.73-1.8,9.88-1.8,3.54,0,6.42.4,8.64,1.2,2.22.8,3.87,2.16,4.94,4.08,1.07,1.92,1.61,4.58,1.61,7.97,0,2.34-.46,4.23-1.38,5.65-.92,1.42-2.24,2.44-3.96,3.07-1.72.62-3.76.94-6.1.94h-14.59c.05,3.24.4,5.85,1.05,7.82.65,1.97,1.83,3.39,3.55,4.26,1.72.88,4.25,1.31,7.6,1.31h12.87v3.59c-2.29.3-4.54.55-6.73.75-2.2.2-4.71.3-7.56.3ZM873.06,380.51h14.22c2.24,0,3.9-.41,4.98-1.23,1.07-.82,1.61-2.31,1.61-4.45,0-2.29-.34-4.08-1.01-5.35-.68-1.27-1.72-2.17-3.14-2.69-1.42-.52-3.33-.79-5.73-.79-2.79,0-4.99.41-6.58,1.23-1.6.82-2.72,2.28-3.37,4.38-.65,2.1-.97,5.06-.97,8.9Z"/>
      <path class="cls-2" d="M930.22,354.92c-.8,0-1.19-.4-1.19-1.2v-5.84c0-.8.4-1.2,1.19-1.2h4.19c.4,0,.69.11.86.34.17.22.26.51.26.86v5.84c0,.8-.37,1.2-1.12,1.2h-4.19ZM929.32,401.99v-39.96h5.91v39.96h-5.91Z"/>
      <path class="cls-2" d="M946.6,401.99v-39.96h4.64l1.27,4.42c1.9-1.35,4.12-2.53,6.66-3.55,2.54-1.02,5.19-1.53,7.93-1.53,2.94,0,5.31.62,7.11,1.87,1.79,1.25,3.12,2.89,3.96,4.94.85,2.05,1.27,4.27,1.27,6.66v27.16h-5.91v-26.49c0-1.7-.34-3.2-1.01-4.53-.68-1.32-1.62-2.36-2.84-3.11-1.22-.75-2.73-1.12-4.53-1.12-1.65,0-3.18.16-4.6.49-1.42.33-2.77.77-4.04,1.35-1.27.58-2.61,1.26-4,2.06v31.35h-5.91Z"/>
      <path class="cls-2" d="M1022.55,402.29c-1.2,0-2.47-.11-3.82-.34-1.34-.22-2.62-.69-3.81-1.38s-2.17-1.76-2.92-3.18-1.12-3.35-1.12-5.8v-33.6c0-2.14.31-3.93.94-5.35.62-1.42,1.46-2.54,2.51-3.37,1.05-.82,2.22-1.42,3.52-1.8,1.29-.37,2.59-.56,3.89-.56,3.09.05,5.96.11,8.6.19,2.64.07,5.15.15,7.52.22,2.37.07,4.68.16,6.92.26v4.79h-21.55c-1.94,0-3.49.52-4.64,1.57-1.15,1.05-1.72,2.72-1.72,5.01v13.02l24.62.37v4.56l-24.62.37v12.94c0,1.85.31,3.24.94,4.19.62.95,1.46,1.57,2.51,1.87,1.05.3,2.12.45,3.22.45h21.25v4.79c-2.29.15-4.7.28-7.22.37-2.52.1-5.04.17-7.56.22-2.52.05-5,.1-7.45.15Z"/>
      <path class="cls-2" d="M1066.62,402.44c-3.84,0-6.8-1-8.87-2.99-2.07-1.99-3.11-5.09-3.11-9.28v-28.13h5.91v26.64c0,3.34.76,5.6,2.28,6.77,1.52,1.17,3.65,1.76,6.4,1.76,2.34,0,4.49-.34,6.43-1.01,1.94-.67,3.94-1.61,5.98-2.81v-31.35h5.91v39.96h-4.64l-1.27-4.42c-2.05,1.3-4.35,2.43-6.92,3.41-2.57.97-5.28,1.46-8.12,1.46Z"/>
      <path class="cls-2" d="M1098.72,401.99v-39.96h4.49l1.42,6.96c1.8-2.14,3.8-3.92,6.02-5.31,2.22-1.4,4.78-2.09,7.67-2.09.7,0,1.36.03,1.98.07s1.21.15,1.76.3v6.06c-.65-.1-1.34-.19-2.09-.26-.75-.07-1.5-.11-2.25-.11-1.85,0-3.49.22-4.94.67s-2.82,1.12-4.12,2.02c-1.3.9-2.65,1.99-4.04,3.29v28.36h-5.91Z"/>
      <path class="cls-2" d="M1145.41,402.44c-2.89,0-5.43-.3-7.59-.9-2.17-.6-3.98-1.65-5.43-3.14s-2.52-3.58-3.22-6.25c-.7-2.67-1.05-6.07-1.05-10.21s.35-7.62,1.05-10.29c.7-2.67,1.77-4.74,3.22-6.21,1.45-1.47,3.26-2.49,5.43-3.07,2.17-.57,4.7-.86,7.59-.86s5.43.3,7.6.9c2.17.6,3.98,1.63,5.43,3.11,1.45,1.47,2.53,3.54,3.26,6.21.72,2.67,1.09,6.07,1.09,10.21s-.37,7.62-1.09,10.29c-.72,2.67-1.8,4.74-3.22,6.21-1.42,1.47-3.23,2.51-5.43,3.11-2.2.6-4.74.9-7.63.9ZM1145.41,397.57c1.85,0,3.48-.17,4.9-.52,1.42-.35,2.6-1.05,3.55-2.1.95-1.05,1.67-2.62,2.17-4.71.5-2.1.75-4.86.75-8.3s-.25-6.26-.75-8.31c-.5-2.04-1.22-3.59-2.17-4.64-.95-1.05-2.13-1.75-3.55-2.1s-3.06-.52-4.9-.52-3.54.18-4.94.52c-1.4.35-2.57,1.05-3.52,2.1-.95,1.05-1.67,2.59-2.17,4.64-.5,2.05-.75,4.82-.75,8.31s.25,6.21.75,8.3c.5,2.1,1.22,3.67,2.17,4.71.95,1.05,2.12,1.75,3.52,2.1,1.4.35,3.04.52,4.94.52Z"/>
      <path class="cls-2" d="M1172.72,419.72v-57.69h4.79l1.12,4.12c.9-.65,2.06-1.33,3.48-2.06,1.42-.72,2.97-1.33,4.64-1.83,1.67-.5,3.33-.75,4.98-.75,2.59,0,4.8.56,6.62,1.68,1.82,1.12,3.3,2.63,4.45,4.53,1.15,1.9,1.97,4.07,2.47,6.51.5,2.44.75,5.01.75,7.71,0,4.49-.51,8.27-1.53,11.34-1.02,3.07-2.58,5.38-4.68,6.92-2.09,1.55-4.79,2.32-8.08,2.32-2.24,0-4.5-.36-6.77-1.09-2.27-.72-4.38-1.63-6.32-2.73v21.03h-5.91ZM1190.08,397.5c1.9,0,3.59-.47,5.09-1.42,1.5-.95,2.7-2.56,3.6-4.83.9-2.27,1.34-5.37,1.34-9.31s-.47-6.75-1.42-9.02c-.95-2.27-2.17-3.91-3.66-4.94-1.5-1.02-3.15-1.53-4.94-1.53-2.29,0-4.4.36-6.32,1.09-1.92.72-3.63,1.49-5.13,2.28v24.47c1.75.95,3.61,1.72,5.58,2.32,1.97.6,3.93.9,5.87.9Z"/>
      <path class="cls-2" d="M1231.23,402.44c-4.19,0-7.49-.62-9.91-1.87-2.42-1.25-4.15-3.37-5.2-6.36-1.04-2.99-1.57-7.08-1.57-12.27s.54-9.42,1.61-12.38c1.07-2.97,2.83-5.05,5.28-6.25,2.44-1.2,5.73-1.8,9.88-1.8,3.54,0,6.42.4,8.64,1.2,2.22.8,3.87,2.16,4.94,4.08,1.07,1.92,1.61,4.58,1.61,7.97,0,2.34-.46,4.23-1.38,5.65-.92,1.42-2.24,2.44-3.96,3.07-1.72.62-3.76.94-6.1.94h-14.59c.05,3.24.4,5.85,1.05,7.82.65,1.97,1.83,3.39,3.55,4.26,1.72.88,4.25,1.31,7.6,1.31h12.87v3.59c-2.29.3-4.54.55-6.73.75-2.2.2-4.71.3-7.56.3ZM1220.38,380.51h14.22c2.24,0,3.9-.41,4.98-1.23,1.07-.82,1.61-2.31,1.61-4.45,0-2.29-.34-4.08-1.01-5.35-.68-1.27-1.72-2.17-3.14-2.69-1.42-.52-3.33-.79-5.73-.79-2.79,0-4.99.41-6.58,1.23-1.6.82-2.72,2.28-3.37,4.38-.65,2.1-.97,5.06-.97,8.9Z"/>
    </g>
  </g>
  <line class="cls-1" x1="180.17" y1="330.9" x2="180.15" y2="333.48"/>
</svg>